<?xml version="1.0" encoding="UTF-8"?><svg id="Logo" xmlns="http://www.w3.org/2000/svg" viewBox="0 0 42.24 40.91"><defs><style>.cls-1{stroke:#000;stroke-linejoin:round;stroke-width:2px;}</style></defs><path class="cls-1" d="M4.55,36.01l-1.15-.35c-1.07-.47-1.79-1.27-2.18-2.4-.38-1.13-.28-2.25,.32-3.35l3-6.8v12.9Zm9.3,3.9c-1.13,0-2.1-.4-2.9-1.2-.8-.8-1.2-1.77-1.2-2.9v-10.35l4.6,13.1c.07,.27,.17,.5,.3,.7,.13,.2,.3,.42,.5,.65h-1.3Zm9.4-1.2c-.7,.3-1.43,.23-2.2-.2-.77-.43-1.32-1.03-1.65-1.8L9.85,10.76c-.33-.77-.3-1.52,.1-2.25s1.02-1.27,1.85-1.6L27.7,1.16c.77-.27,1.52-.2,2.25,.2s1.27,1,1.6,1.8l9.55,25.65c.23,.83,.18,1.65-.15,2.45s-.92,1.35-1.75,1.65l-15.95,5.8Zm-4.1-24.75c.4,0,.75-.15,1.05-.45,.3-.3,.45-.65,.45-1.05,0-.4-.15-.75-.45-1.05-.3-.3-.65-.45-1.05-.45s-.75,.15-1.05,.45c-.3,.3-.45,.65-.45,1.05s.15,.75,.45,1.05c.3,.3,.65,.45,1.05,.45Zm3.15,21.85l15.9-5.8L28.65,4.06l-15.9,5.75,9.55,26ZM12.75,9.81l15.9-5.75-15.9,5.75Z"/></svg>